<?xml version="1.0" encoding="utf-8"?>
<!-- Generator: Adobe Illustrator 19.0.0, SVG Export Plug-In . SVG Version: 6.00 Build 0)  -->
<svg version="1.1" id="Layer_1" xmlns="http://www.w3.org/2000/svg" xmlns:xlink="http://www.w3.org/1999/xlink" x="0px" y="0px"
	 width="70px" height="70px" viewBox="0 0 70 70" style="enable-background:new 0 0 70 70;" xml:space="preserve">
<style type="text/css">
	.st0{fill:#5FA2DD;}
</style>
<g id="XMLID_1_">
	<path id="XMLID_15_" class="st0" d="M62.7,17.3L46.6,3.2C46.4,3.1,46.2,3,45.9,3H22c-1.7,0-3,1.3-3,3v4h-9c-1.7,0-3,1.3-3,3v51
		c0,1.7,1.3,3,3,3h38c1.7,0,3-1.3,3-3v-5h9c1.7,0,3-1.3,3-3V18.1C63,17.8,62.9,17.5,62.7,17.3z M47,6.3l13.3,11.6H48
		c-0.6,0-1-0.4-1-1V6.3z M49,64c0,0.6-0.4,1-1,1H10c-0.6,0-1-0.4-1-1V13c0-0.6,0.4-1,1-1h9v11h-4v2h4v7h-4v2h4v5h-4v2h4v7h-4v2h4v4
		h-4v2h4c0,1.7,1.3,3,3,3h27V64z M61,56c0,0.6-0.4,1-1,1H22c-0.6,0-1-0.4-1-1V6c0-0.6,0.4-1,1-1h23v11.9c0,1.7,1.3,3,3,3h13V56z"/>
	<rect id="XMLID_18_" x="27" y="16" class="st0" width="13" height="2"/>
	<rect id="XMLID_19_" x="27" y="25" class="st0" width="28" height="2"/>
	<rect id="XMLID_20_" x="27" y="32" class="st0" width="28" height="2"/>
	<rect id="XMLID_21_" x="27" y="41" class="st0" width="28" height="2"/>
	<rect id="XMLID_22_" x="27" y="47" class="st0" width="28" height="2"/>
</g>
</svg>
