<?xml version="1.0" encoding="utf-8"?>
<!-- Generator: Adobe Illustrator 19.0.0, SVG Export Plug-In . SVG Version: 6.00 Build 0)  -->
<svg version="1.1" id="Layer_1" xmlns="http://www.w3.org/2000/svg" xmlns:xlink="http://www.w3.org/1999/xlink" x="0px" y="0px"
	 width="70px" height="70px" viewBox="0 0 70 70" style="enable-background:new 0 0 70 70;" xml:space="preserve">
<style type="text/css">
	.st0{fill:#5FA2DD;}
</style>
<path id="XMLID_10_" class="st0" d="M54.9,23.5c-1.1,0-2.2,0.2-3.3,0.5c-1.7-8.3-9-14.5-17.8-14.5c-6.5,0-12.5,3.4-15.7,9
	c-0.2,0-0.3,0-0.5,0C9.6,18.5,3,25,3,33s6.6,14.5,14.6,14.5h8.5L34,59.4c0.1,0.3,0.6,1.1,1.4,1.1l0,0h1.1c0.7,0,1.1-0.6,1.3-0.9
	l7.9-12h9.1C61.6,47.5,67,42.1,67,35.5S61.6,23.5,54.9,23.5z M54.9,45.5H45c-0.2-0.1-0.4-0.1-0.6-0.1l0,0H41v-5.9h-2v8.8h2v-0.9l0,0
	v0.1h2.4l-7.1,11h-0.4c0,0,0-0.1-0.1-0.1l-7.2-10.9H31v0.8h2v-0.8l0,0v-2l0,0v-6h-2v6h-0.1v-0.1h-3.4c-0.2,0-0.4,0-0.5,0.1h-9.4
	C10.7,45.5,5,39.9,5,33s5.7-12.5,12.6-12.5c3.1,0,6.1,1.1,8.4,3.2l1.3-1.5c-2-1.8-4.4-3-7.1-3.5c3-4.5,8-7.2,13.5-7.2
	c9,0,16.3,7.2,16.3,16.1c0,1.2-0.1,2.4-0.4,3.6l1.9,0.5c0.3-1.3,0.5-2.7,0.5-4.1c0-0.5,0-1.1-0.1-1.6c1-0.3,2-0.5,3-0.5
	c5.6,0,10.1,4.5,10.1,10S60.5,45.5,54.9,45.5z"/>
</svg>
