<?xml version="1.0" encoding="utf-8"?>
<!-- Generator: Adobe Illustrator 19.0.0, SVG Export Plug-In . SVG Version: 6.00 Build 0)  -->
<svg version="1.1" id="Layer_1" xmlns="http://www.w3.org/2000/svg" xmlns:xlink="http://www.w3.org/1999/xlink" x="0px" y="0px"
	 width="261px" height="150px" viewBox="0 0 261 150" style="enable-background:new 0 0 261 150;" xml:space="preserve">
<style type="text/css">
	.st0{clip-path:url(#XMLID_28_);}
	.st1{opacity:5.000000e-002;}
	.st2{fill:#419EF7;}
	.st3{opacity:0.15;}
	.st4{opacity:0.25;}
	.st5{fill:#233138;}
</style>
<g id="XMLID_33_">
	<defs>
		<rect id="XMLID_36_" width="261" height="150"/>
	</defs>
	<clipPath id="XMLID_28_">
		<use xlink:href="#XMLID_36_"  style="overflow:visible;"/>
	</clipPath>
	<g id="XMLID_37_" class="st0">
		<g id="XMLID_215_" class="st1">
			<path id="XMLID_216_" class="st2" d="M83,138h-99.3l-9.4-40.1L80.7-28.6h57.4V95.5h26.1V138h-26.1v39.8H83V138z M83,95.8V37
				L34.1,95.8H83z"/>
		</g>
		<g id="XMLID_211_" class="st3">
			<path id="XMLID_212_" class="st2" d="M138.6,125.3H59.2l-7.5-32.1L136.7-8h45.9v99.3h20.9v34h-20.9v31.9h-44V125.3z M138.6,91.6
				V44.5L99.5,91.6H138.6z"/>
		</g>
		<g id="XMLID_207_" class="st4">
			<path id="XMLID_208_" class="st2" d="M182.9,115.2h-63.5l-6-25.7l68-81h36.7V88h16.7v27.2h-16.7v25.5h-35.2V115.2z M182.9,88.2
				V50.5l-31.3,37.7H182.9z"/>
		</g>
		<g id="XMLID_154_">
			<g id="XMLID_104_">
				<path id="XMLID_117_" class="st5" d="M34.3,45.7h17.8v5.2H40.3v3.4H51v4.9H40.3v3.5h11.9v5.2h-18V45.7z"/>
				<path id="XMLID_115_" class="st5" d="M61.4,56.6l-7.3-10.9h7.1l3.9,6.2l4-6.2H76l-7.3,10.8l7.6,11.4h-7.1L65,61.2l-4.3,6.7h-6.9
					L61.4,56.6z"/>
				<path id="XMLID_113_" class="st5" d="M84.1,51.1h-6.7v-5.4h19.5v5.4h-6.7v16.8h-6.2V51.1z"/>
				<path id="XMLID_111_" class="st5" d="M99,61.7h6.3v6.2H99V61.7z"/>
				<path id="XMLID_109_" class="st5" d="M108.6,45.7h5.8l9.2,11.7V45.7h6.1v22.2h-5.4l-9.5-12.2v12.2h-6.1V45.7z"/>
				<path id="XMLID_107_" class="st5" d="M133.5,45.7h17.8v5.2h-11.8v3.4h10.7v4.9h-10.7v3.5h11.9v5.2h-18V45.7z"/>
				<path id="XMLID_105_" class="st5" d="M160,51.1h-6.7v-5.4h19.5v5.4h-6.7v16.8H160V51.1z"/>
			</g>
		</g>
		<g id="XMLID_94_">
			<g id="XMLID_161_">
				<path id="XMLID_191_" class="st5" d="M33.9,80h2.7v12.2h-2.7V80z"/>
				<path id="XMLID_189_" class="st5" d="M44,92.4c-0.9,0-1.8-0.2-2.7-0.5c-0.9-0.3-1.7-0.8-2.4-1.5l1.6-1.9
					c0.6,0.5,1.1,0.8,1.7,1.1c0.6,0.3,1.2,0.4,1.9,0.4c0.6,0,1-0.1,1.3-0.3c0.3-0.2,0.5-0.5,0.5-0.8v0c0-0.2,0-0.3-0.1-0.5
					s-0.2-0.3-0.4-0.4c-0.2-0.1-0.4-0.2-0.8-0.3c-0.3-0.1-0.7-0.2-1.3-0.4c-0.6-0.2-1.2-0.3-1.7-0.5s-0.9-0.4-1.3-0.7
					c-0.3-0.3-0.6-0.6-0.8-1c-0.2-0.4-0.3-0.9-0.3-1.5v0c0-0.6,0.1-1.1,0.3-1.5c0.2-0.4,0.5-0.8,0.9-1.2c0.4-0.3,0.8-0.6,1.3-0.7
					c0.5-0.2,1.1-0.3,1.7-0.3c0.9,0,1.7,0.1,2.5,0.4c0.8,0.3,1.4,0.7,2.1,1.2l-1.4,2c-0.5-0.4-1.1-0.7-1.6-0.9
					c-0.5-0.2-1-0.3-1.6-0.3c-0.5,0-0.9,0.1-1.2,0.3c-0.3,0.2-0.4,0.5-0.4,0.8v0c0,0.2,0,0.4,0.1,0.5c0.1,0.1,0.2,0.3,0.4,0.4
					c0.2,0.1,0.5,0.2,0.8,0.3c0.3,0.1,0.8,0.2,1.3,0.4c0.6,0.2,1.2,0.3,1.7,0.5c0.5,0.2,0.9,0.4,1.2,0.7c0.3,0.3,0.6,0.6,0.8,1
					c0.2,0.4,0.3,0.8,0.3,1.4v0c0,0.6-0.1,1.1-0.3,1.6c-0.2,0.5-0.5,0.9-0.9,1.2c-0.4,0.3-0.9,0.6-1.4,0.7
					C45.3,92.3,44.7,92.4,44,92.4z"/>
				<path id="XMLID_187_" class="st5" d="M56,80h2.7v4.8h5V80h2.7v12.2h-2.7v-4.9h-5v4.9H56V80z"/>
				<path id="XMLID_174_" class="st5" d="M69.3,80h9.2v2.4h-6.5v2.5h5.8v2.4h-5.8v2.6h6.6v2.4h-9.3V80z"/>
				<path id="XMLID_171_" class="st5" d="M81,80h5.6c1.5,0,2.7,0.4,3.6,1.2c0.7,0.7,1,1.6,1,2.8v0c0,1-0.2,1.8-0.7,2.4
					c-0.5,0.6-1.1,1.1-1.9,1.4l3,4.4h-3.1l-2.6-3.9h0h-2.1v3.9H81V80z M86.4,85.9c0.7,0,1.2-0.2,1.5-0.5c0.4-0.3,0.5-0.7,0.5-1.3v0
					c0-0.6-0.2-1-0.6-1.3c-0.4-0.3-0.9-0.4-1.6-0.4h-2.7v3.5H86.4z"/>
				<path id="XMLID_169_" class="st5" d="M93.6,80h9.2v2.4h-6.5v2.5h5.8v2.4h-5.8v2.6h6.6v2.4h-9.3V80z"/>
				<path id="XMLID_167_" class="st5" d="M110.5,80h2.5l5.7,7.5V80h2.7v12.2h-2.3l-5.9-7.8v7.8h-2.7V80z"/>
				<path id="XMLID_164_" class="st5" d="M130.2,92.4c-0.9,0-1.8-0.2-2.6-0.5c-0.8-0.3-1.5-0.8-2-1.3c-0.6-0.6-1-1.2-1.3-2
					s-0.5-1.6-0.5-2.5v0c0-0.9,0.2-1.7,0.5-2.5c0.3-0.8,0.8-1.4,1.4-2s1.3-1,2.1-1.4c0.8-0.3,1.7-0.5,2.6-0.5c0.9,0,1.8,0.2,2.6,0.5
					c0.8,0.3,1.5,0.8,2,1.3c0.6,0.6,1,1.2,1.3,2s0.5,1.6,0.5,2.5v0c0,0.9-0.2,1.7-0.5,2.5c-0.3,0.8-0.8,1.4-1.4,2
					c-0.6,0.6-1.3,1-2.1,1.4C132,92.2,131.1,92.4,130.2,92.4z M130.2,89.9c0.5,0,1-0.1,1.5-0.3c0.5-0.2,0.8-0.5,1.2-0.8
					c0.3-0.3,0.6-0.8,0.8-1.2c0.2-0.5,0.3-1,0.3-1.5v0c0-0.5-0.1-1-0.3-1.5c-0.2-0.5-0.4-0.9-0.8-1.2c-0.3-0.3-0.7-0.6-1.2-0.8
					c-0.5-0.2-0.9-0.3-1.5-0.3c-0.5,0-1,0.1-1.5,0.3c-0.4,0.2-0.8,0.5-1.2,0.8c-0.3,0.3-0.6,0.8-0.8,1.2c-0.2,0.5-0.3,1-0.3,1.5v0
					c0,0.5,0.1,1,0.3,1.5c0.2,0.5,0.4,0.9,0.8,1.2c0.3,0.3,0.7,0.6,1.2,0.8C129.2,89.8,129.7,89.9,130.2,89.9z"/>
				<path id="XMLID_162_" class="st5" d="M138.2,80h2.9l2.5,8.3l2.7-8.3h2.3l2.7,8.3l2.5-8.3h2.8l-4.2,12.3h-2.3l-2.8-8l-2.8,8h-2.3
					L138.2,80z"/>
			</g>
		</g>
		<g id="XMLID_78_">
			<path id="XMLID_79_" class="st2" d="M219.9,107.1h-50.8l-4.8-20.5l54.4-64.8h29.4v63.6h13.3v21.7h-13.3v20.4h-28.2V107.1z
				 M219.9,85.5V55.3l-25,30.1H219.9z"/>
		</g>
		<g id="XMLID_72_">
			<rect id="XMLID_74_" x="34" y="102" class="st2" width="126" height="5"/>
		</g>
	</g>
</g>
</svg>
