<?xml version="1.0" encoding="utf-8"?>
<!-- Generator: Adobe Illustrator 19.0.0, SVG Export Plug-In . SVG Version: 6.00 Build 0)  -->
<svg version="1.1" id="Layer_1" xmlns="http://www.w3.org/2000/svg" xmlns:xlink="http://www.w3.org/1999/xlink" x="0px" y="0px"
	 width="226.2px" height="91.5px" viewBox="0 0 226.2 91.5" style="enable-background:new 0 0 226.2 91.5;" xml:space="preserve">
<style type="text/css">
	.st0{fill:#FFFFFF;}
	.st1{fill:#00C19C;}
</style>
<g id="XMLID_91_">
	<g id="XMLID_309_">
		<path id="XMLID_335_" class="st0" d="M12.3,13h15.7v4.6H17.7v3h9.4v4.3h-9.4V28h10.5v4.6H12.3V13z"/>
		<path id="XMLID_325_" class="st0" d="M36.3,22.6L29.9,13h6.2l3.5,5.5l3.5-5.5h6.1l-6.4,9.6l6.7,10h-6.2l-3.8-5.9l-3.8,5.9h-6.1
			L36.3,22.6z"/>
		<path id="XMLID_323_" class="st0" d="M56.3,17.7h-5.9V13h17.2v4.8h-5.9v14.8h-5.4V17.7z"/>
		<path id="XMLID_320_" class="st0" d="M69.5,27.1H75v5.5h-5.5V27.1z"/>
		<path id="XMLID_318_" class="st0" d="M78,13H83l8.1,10.4V13h5.4v19.6h-4.8l-8.4-10.8v10.8H78V13z"/>
		<path id="XMLID_315_" class="st0" d="M100,13h15.7v4.6h-10.4v3h9.4v4.3h-9.4V28h10.5v4.6H100V13z"/>
		<path id="XMLID_310_" class="st0" d="M123.4,17.7h-5.9V13h17.2v4.8h-5.9v14.8h-5.4V17.7z"/>
	</g>
	<g id="XMLID_97_">
		<polygon id="XMLID_308_" class="st1" points="16.6,67.4 23.3,75.9 27,75.9 27,60.3 22.8,60.3 22.8,68.6 16.4,60.3 12.3,60.3 
			12.3,75.9 16.6,75.9 		"/>
		<path id="XMLID_305_" class="st1" d="M31.7,73.9c0.7,0.7,1.6,1.3,2.7,1.7c1,0.4,2.1,0.6,3.3,0.6c1.2,0,2.3-0.2,3.3-0.6
			c1-0.4,1.9-1,2.7-1.7c0.8-0.7,1.3-1.6,1.8-2.6s0.6-2,0.6-3.2v0c0-1.1-0.2-2.2-0.6-3.1c-0.4-1-1-1.8-1.7-2.6
			c-0.7-0.7-1.6-1.3-2.7-1.7c-1-0.4-2.1-0.6-3.3-0.6c-1.2,0-2.3,0.2-3.3,0.6c-1,0.4-1.9,1-2.7,1.7c-0.8,0.7-1.3,1.6-1.8,2.6
			c-0.4,1-0.6,2-0.6,3.2v0c0,1.1,0.2,2.2,0.6,3.1C30.3,72.3,30.9,73.1,31.7,73.9z M33.7,68.1c0-0.6,0.1-1.1,0.3-1.6
			c0.2-0.5,0.5-0.9,0.8-1.3c0.4-0.4,0.8-0.7,1.3-0.9c0.5-0.2,1-0.3,1.6-0.3s1.1,0.1,1.6,0.3c0.5,0.2,0.9,0.5,1.3,0.9
			c0.4,0.4,0.6,0.8,0.8,1.3c0.2,0.5,0.3,1,0.3,1.6v0c0,0.6-0.1,1.1-0.3,1.6c-0.2,0.5-0.5,0.9-0.8,1.3c-0.3,0.4-0.8,0.7-1.3,0.9
			c-0.5,0.2-1,0.3-1.6,0.3c-0.6,0-1.1-0.1-1.6-0.3c-0.5-0.2-0.9-0.5-1.3-0.9c-0.4-0.4-0.6-0.8-0.8-1.3
			C33.8,69.2,33.7,68.7,33.7,68.1L33.7,68.1z"/>
		<polygon id="XMLID_304_" class="st1" points="56.3,76 59.4,67 62.5,76 66.3,76 71.5,60.3 67,60.3 64.3,69.3 61.3,60.3 57.6,60.3 
			54.6,69.3 51.9,60.3 47.3,60.3 52.5,76 		"/>
		<path id="XMLID_228_" class="st1" d="M83.8,73.1h6l1.1,2.8h4.6L89,60.2h-4.2l-6.6,15.7h4.5L83.8,73.1z M86.9,65.4l1.7,4.4h-3.5
			L86.9,65.4z"/>
		<polygon id="XMLID_227_" class="st1" points="106.2,76 112.6,60.3 107.8,60.3 104.3,70.2 100.7,60.3 95.9,60.3 102.2,76 		"/>
		<path id="XMLID_224_" class="st1" d="M118.5,73.1h6l1.1,2.8h4.6l-6.6-15.7h-4.2l-6.6,15.7h4.5L118.5,73.1z M121.5,65.4l1.7,4.4
			h-3.5L121.5,65.4z"/>
		<rect id="XMLID_223_" x="131.9" y="60.3" class="st1" width="4.3" height="15.6"/>
		<polygon id="XMLID_222_" class="st1" points="151,72.1 143.4,72.1 143.4,60.3 139.1,60.3 139.1,75.9 151,75.9 		"/>
		<path id="XMLID_219_" class="st1" d="M157.2,73.1h6l1.1,2.8h4.6l-6.6-15.7h-4.2l-6.6,15.7h4.5L157.2,73.1z M160.3,65.4l1.7,4.4
			h-3.5L160.3,65.4z"/>
		<path id="XMLID_215_" class="st1" d="M182.9,74.8c1-0.8,1.5-1.8,1.5-3.2v0c0-1.1-0.3-1.9-0.8-2.5c-0.6-0.6-1.3-1-2.3-1.3
			c0.7-0.3,1.3-0.7,1.7-1.3c0.5-0.6,0.7-1.3,0.7-2.2v0c0-0.5-0.1-1-0.3-1.4c-0.2-0.4-0.4-0.8-0.7-1.1c-0.5-0.5-1-0.8-1.7-1
			c-0.7-0.2-1.5-0.4-2.5-0.4h-8v15.6h8C180.5,75.9,181.9,75.5,182.9,74.8z M174.7,63.8h2.8c0.7,0,1.1,0.1,1.5,0.3
			c0.3,0.2,0.5,0.6,0.5,1v0c0,0.5-0.2,0.8-0.5,1c-0.3,0.2-0.9,0.3-1.5,0.3h-2.7V63.8z M174.7,72.4v-2.9h3.3c0.7,0,1.3,0.1,1.6,0.4
			c0.3,0.3,0.5,0.6,0.5,1v0c0,0.5-0.2,0.8-0.5,1.1c-0.4,0.2-0.9,0.4-1.5,0.4H174.7z"/>
		<polygon id="XMLID_214_" class="st1" points="198.3,72.1 190.8,72.1 190.8,60.3 186.5,60.3 186.5,75.9 198.3,75.9 		"/>
		<polygon id="XMLID_213_" class="st1" points="212.8,72.2 204.5,72.2 204.5,69.8 211.9,69.8 211.9,66.4 204.5,66.4 204.5,64 
			212.7,64 212.7,60.3 200.2,60.3 200.2,75.9 212.8,75.9 		"/>
		<path id="XMLID_210_" class="st1" d="M154.9,13h-5.5l-10.1,12l0.9,3.8h9.4v3.8h5.2v-3.8h2.5v-4h-2.5V13z M149.6,24.8H145l4.7-5.6
			V24.8z"/>
		<path id="XMLID_209_" class="st1" d="M188.4,17.2c-0.6-0.4-1.2-0.5-2.2-0.5h-4v4.6h4.1c1,0,1.7-0.1,2.2-0.5
			c0.6-0.5,0.7-0.9,0.7-1.7v-0.1C189.1,18.2,188.9,17.7,188.4,17.2z"/>
		<path id="XMLID_101_" class="st1" d="M226.2,5.1L226.2,5.1L226.1,0h-56.4h-1.5H0v45.1v1.3v45.1h226.1V46.4v-1.3v-3.7h0.1V5.1z
			 M204.2,24.4c0.3,0.7,0.6,1.3,1.1,1.8c0.5,0.5,1,0.9,1.6,1.2c0.6,0.3,1.3,0.4,2.1,0.4c0.6,0,1.1-0.1,1.5-0.2
			c0.5-0.1,0.9-0.3,1.3-0.5c0.4-0.2,0.7-0.5,1.1-0.8c0.3-0.3,0.7-0.7,1-1.1l4.5,3.2c-0.5,0.7-1.1,1.3-1.7,1.9
			c-0.6,0.6-1.3,1.1-2.1,1.5c-0.8,0.4-1.6,0.8-2.6,1c-1,0.2-2,0.4-3.2,0.4c-1.5,0-3-0.3-4.3-0.8c-1.4-0.6-2.5-1.3-3.5-2.3
			c-1-1-1.8-2.2-2.4-3.5c-0.6-1.4-0.9-2.9-0.9-4.5v-0.1c0-1.6,0.3-3,0.9-4.4c0.6-1.4,1.4-2.6,2.4-3.6c1-1,2.2-1.8,3.6-2.4
			c1.4-0.6,2.9-0.9,4.6-0.9c1.1,0,2.1,0.1,3,0.3c0.9,0.2,1.7,0.5,2.5,0.9c0.7,0.4,1.4,0.9,2,1.4c0.6,0.6,1.1,1.2,1.6,1.8l-4.5,3.5
			c-0.6-0.8-1.3-1.4-2-1.8c-0.7-0.5-1.6-0.7-2.7-0.7c-0.8,0-1.5,0.1-2.1,0.4c-0.6,0.3-1.2,0.7-1.6,1.2c-0.5,0.5-0.8,1.1-1.1,1.8
			c-0.3,0.7-0.4,1.4-0.4,2.2v0.1C203.8,22.9,203.9,23.7,204.2,24.4z M196.1,32.9h-6.9l-4.3-7h-0.1h-2.7v7h-5.4V12.1h9.8
			c1.7,0,3.1-0.2,4.2,0.2c1.1,0.4,2,0.8,2.7,1.5c1.3,1.2,1.8,2.7,1.8,4.8v0.1c0,1.7-0.3,3-1.1,4.1c-0.8,1.1-1.8,1.9-3.2,2.5
			L196.1,32.9z M1.5,1.5h166.6v43.3H1.5V1.5z M224.6,89.9H1.5V46.6h223V89.9z"/>
	</g>
</g>
</svg>
