<?xml version="1.0" encoding="utf-8"?>
<!-- Generator: Adobe Illustrator 19.0.0, SVG Export Plug-In . SVG Version: 6.00 Build 0)  -->
<svg version="1.1" id="Layer_1" xmlns="http://www.w3.org/2000/svg" xmlns:xlink="http://www.w3.org/1999/xlink" x="0px" y="0px"
	 width="211.5px" height="150px" viewBox="-120.7 345.9 211.5 150" style="enable-background:new -120.7 345.9 211.5 150;"
	 xml:space="preserve">
<style type="text/css">
	.st0{fill:#262D2E;}
	.st1{fill:#95CD8B;}
	.st2{fill:#4CA7C6;}
	.st3{fill:#FFFFFF;}
	.st4{fill:none;}
</style>
<g id="Layer_2">
</g>
<g id="Layer_1_1_">
	<path id="XMLID_19_" class="st0" d="M57.9,466.3v-35.6H31.1v-84.8h-69.5l-77.1,89.4l7.1,31.1h97.6v29.5h41.9v-29.5H57.9z
		 M-10.8,430.7h-53l53-62.2V430.7z"/>
	<g id="XMLID_357_">
		<path id="XMLID_374_" class="st1" d="M52,410.3c0.5,0.4,0.7,1,0.7,1.8c0,0.8-0.2,1.4-0.7,1.7c-0.5,0.4-1.2,0.5-2.2,0.5h-0.9v1.8
			h-1.4v-6.4h2.3C50.9,409.8,51.6,409.9,52,410.3z M51,412.9c0.1-0.2,0.2-0.5,0.2-0.8s-0.1-0.7-0.4-0.8s-0.6-0.2-1-0.2h-0.8v2.2h1
			C50.5,413.2,50.8,413.1,51,412.9z"/>
		<path id="XMLID_371_" class="st1" d="M59.1,411.9c0,1-0.4,1.7-1.2,2l1.6,2.3h-1.8l-1.4-2.1h-1v2.1H54v-6.5h2.5
			c1,0,1.7,0.1,2.2,0.5C58.9,410.6,59.1,411.1,59.1,411.9z M57.3,412.7c0.1-0.2,0.3-0.5,0.3-0.8c0-0.4-0.1-0.6-0.3-0.8
			c-0.1-0.2-0.5-0.2-1-0.2h-1v1.9h1C56.9,412.9,57.2,412.9,57.3,412.7z"/>
		<path id="XMLID_369_" class="st1" d="M65.3,409.8v1.3h-3.2v1.4H65v1.2h-2.9v1.4h3.3v1.3h-4.8v-6.5H65.3z"/>
		<path id="XMLID_367_" class="st1" d="M69,413.9l1.6-4.1h1.6l-2.6,6.5h-1.2l-2.6-6.5h1.6L69,413.9z"/>
		<path id="XMLID_365_" class="st1" d="M73.1,409.8h1.4v6.5h-1.4V409.8z"/>
		<path id="XMLID_363_" class="st1" d="M80.7,409.8v1.3h-3.2v1.4h2.9v1.2h-2.9v1.4h3.3v1.3H76v-6.5H80.7z"/>
		<path id="XMLID_358_" class="st1" d="M84.2,413.5l1.1-3.8h1.5l1.1,3.8l1.3-3.8h1.6l-2.3,6.4h-1l-1.4-4.5l-1.4,4.5h-1l-2.3-6.4h1.6
			L84.2,413.5z"/>
	</g>
	<g id="XMLID_353_">
		<path id="XMLID_354_" class="st1" d="M30.4,413.2H12.7l-1.3-5.6l19.9-23h6.8v22.2h4.9v6.5h-4.9v7.8h-7.6V413.2z M30.4,406.8v-11.3
			l-9.6,11.3H30.4z"/>
	</g>
	<g id="XMLID_274_">
		<path id="XMLID_351_" class="st2" d="M-78.5,426.1h3.4v15.5h-3.4V426.1z"/>
		<path id="XMLID_349_" class="st2" d="M-67.6,429.1c-0.3,0.3-0.5,0.6-0.5,1c0,0.5,0.2,0.8,0.6,1.1c0.4,0.3,1.4,0.6,2.8,1
			c1.5,0.4,2.6,0.9,3.4,1.6c0.8,0.8,1.2,1.8,1.2,3.1s-0.5,2.5-1.6,3.4c-1,0.8-2.4,1.3-4.1,1.3c-2.5,0-4.6-0.9-6.6-2.7l2-2.6
			c1.7,1.4,3.2,2.2,4.7,2.2c0.6,0,1.1-0.2,1.5-0.4c0.4-0.3,0.5-0.7,0.5-1.1c0-0.5-0.2-0.8-0.6-1.1c-0.4-0.3-1.1-0.5-2.3-0.8
			c-1.8-0.5-3.1-1-4-1.6c-0.8-0.7-1.3-1.7-1.3-3.2s0.5-2.6,1.6-3.4c1.1-0.8,2.4-1.2,4-1.2c1,0,2,0.2,3.1,0.5c1,0.4,1.9,0.8,2.7,1.5
			l-1.7,2.5c-1.4-1-2.7-1.5-4.1-1.5C-66.9,428.7-67.3,428.8-67.6,429.1z"/>
		<path id="XMLID_347_" class="st2" d="M-41.7,426.1h3.5v15.5h-3.5v-6.1h-6.1v6.1h-3.4v-15.5h3.4v6.5h6.1V426.1z"/>
		<path id="XMLID_345_" class="st2" d="M-23.4,426.1v3.1h-7.7v3.1h6.9v2.9h-6.9v3.2h8v3.1h-11.3v-15.5H-23.4z"/>
		<path id="XMLID_287_" class="st2" d="M-7.5,431.2c0,2.5-1,4.1-2.9,4.8l3.9,5.5h-4.3l-3.5-5h-2.4v5h-3.5v-15.5h5.9
			c2.4,0,4.1,0.4,5.1,1.2C-8,428.1-7.5,429.4-7.5,431.2z M-11.7,433c0.5-0.4,0.7-1,0.7-1.8c0-0.8-0.2-1.4-0.7-1.7
			c-0.5-0.3-1.2-0.4-2.3-0.4h-2.5v4.6h2.5C-12.9,433.6-12.1,433.3-11.7,433z"/>
		<path id="XMLID_285_" class="st2" d="M7.2,426.1v3.1h-7.7v3.1h6.9v2.9h-6.9v3.2h8v3.1H-4v-15.5H7.2z"/>
		<path id="XMLID_283_" class="st2" d="M27.1,426.1h3.5v15.5h-3.5l-7.4-9.7v9.7h-3.5v-15.5h3.2l7.6,10V426.1z"/>
		<path id="XMLID_280_" class="st2" d="M47.4,439.3c-1.6,1.5-3.5,2.3-5.8,2.3s-4.2-0.8-5.8-2.3c-1.6-1.5-2.3-3.5-2.3-5.7
			s0.8-4.2,2.3-5.7s3.5-2.3,5.8-2.3s4.2,0.8,5.8,2.3c1.6,1.5,2.3,3.5,2.3,5.7C49.7,435.9,48.9,437.8,47.4,439.3z M46.2,433.6
			c0-1.4-0.5-2.5-1.4-3.5s-2-1.4-3.2-1.4s-2.4,0.5-3.2,1.4s-1.4,2.2-1.4,3.5s0.5,2.5,1.4,3.5s2,1.4,3.2,1.4s2.4-0.5,3.2-1.4
			C45.8,436.2,46.2,435.1,46.2,433.6z"/>
		<path id="XMLID_278_" class="st2" d="M57.2,434.9l2.8-8.9h3.6l2.7,8.9l3.1-8.9h3.8l-5.4,15.5h-2.6l-3.4-10.7l-3.4,10.7h-2.5
			l-5.4-15.5h3.8L57.2,434.9z"/>
		<path id="XMLID_275_" class="st2" d="M74.5,426.1h3.9v2.8l-0.7,7.9h-2.6l-0.7-7.9L74.5,426.1L74.5,426.1z M75.1,441.1
			c-0.4-0.4-0.6-0.8-0.6-1.3c0-0.5,0.2-1,0.6-1.4s0.8-0.6,1.3-0.6c0.5,0,1,0.2,1.3,0.6s0.6,0.8,0.6,1.4c0,0.5-0.2,1-0.6,1.3
			s-0.8,0.6-1.3,0.6S75.5,441.4,75.1,441.1z"/>
	</g>
	<g id="XMLID_259_">
		<path id="XMLID_272_" class="st3" d="M-105,398v4.4h-10.8v4.5h9.8v4.1h-9.8v4.5h11.2v4.3h-16.1V398H-105z"/>
		<path id="XMLID_270_" class="st3" d="M-88.2,398h5.8l-6.8,10.5l7.3,11.3h-5.9l-4.7-7.1l-4.6,7.1h-5.8l7.3-11.1l-6.8-10.6h5.9
			l4.1,6.4L-88.2,398z"/>
		<path id="XMLID_268_" class="st3" d="M-69.6,402.2v17.5h-4.9v-17.5h-6.1V398h17.2v4.2H-69.6z"/>
		<path id="XMLID_266_" class="st3" d="M-61.7,419.2c-0.5-0.5-0.8-1.2-0.8-2s0.3-1.4,0.8-1.9s1.2-0.8,2-0.8s1.4,0.3,1.9,0.8
			s0.8,1.2,0.8,1.9s-0.3,1.4-0.8,2s-1.2,0.8-1.9,0.8C-60.5,420-61.2,419.8-61.7,419.2z"/>
		<path id="XMLID_264_" class="st3" d="M-37.4,398h4.9v21.8h-4.9l-10.3-13.6v13.6h-4.9V398h4.6l10.6,14V398z"/>
		<path id="XMLID_262_" class="st3" d="M-11.4,398v4.4h-10.8v4.5h9.8v4.1h-9.8v4.5h11.2v4.3h-16.1V398H-11.4z"/>
		<path id="XMLID_260_" class="st3" d="M2.4,402.2v17.5h-4.9v-17.5h-6.1V398H8.6v4.2H2.4z"/>
	</g>
	<polygon id="XMLID_16_" class="st4" points="-10.8,430.7 -10.8,368.5 -63.9,430.7 	"/>
</g>
</svg>
