<?xml version="1.0" encoding="utf-8"?>
<!-- Generator: Adobe Illustrator 19.0.0, SVG Export Plug-In . SVG Version: 6.00 Build 0)  -->
<svg version="1.1" id="Layer_1" xmlns="http://www.w3.org/2000/svg" xmlns:xlink="http://www.w3.org/1999/xlink" x="0px" y="0px"
	 width="160px" height="31.4px" viewBox="0 0 160 31.4" style="enable-background:new 0 0 160 31.4;" xml:space="preserve">
<style type="text/css">
	.st0{fill:#FFFFFF;}
</style>
<g>
	<polygon class="st0" points="50.4,17 57,17 57,14.2 50.4,14.2 50.4,11.2 57.7,11.2 57.7,8.3 47.1,8.3 47.1,23 58,23 58,20.1 
		50.4,20.1 	"/>
	<polygon class="st0" points="77.4,8.3 73.4,8.3 70.6,12.6 67.8,8.3 63.8,8.3 68.5,15.5 63.5,23 67.5,23 70.6,18.2 73.7,23 77.7,23 
		72.8,15.4 	"/>
	<polygon class="st0" points="82.7,11.1 86.9,11.1 86.9,23 90.2,23 90.2,11.1 94.4,11.1 94.4,8.3 82.7,8.3 	"/>
	<path class="st0" d="M101.1,19.5c-0.5,0-1,0.2-1.3,0.5c-0.4,0.4-0.5,0.8-0.5,1.3c0,0.5,0.2,1,0.5,1.3c0.4,0.4,0.8,0.5,1.3,0.5
		c0.5,0,1-0.2,1.3-0.5c0.4-0.4,0.5-0.8,0.5-1.3c0-0.5-0.2-1-0.5-1.3C102,19.6,101.6,19.5,101.1,19.5z"/>
	<polygon class="st0" points="120.5,17.8 113.2,8.3 110.2,8.3 110.2,23 113.4,23 113.4,13.8 120.5,23 123.7,23 123.7,8.3 120.5,8.3 
			"/>
	<polygon class="st0" points="134.6,17 141.2,17 141.2,14.2 134.6,14.2 134.6,11.2 142,11.2 142,8.3 131.4,8.3 131.4,23 142.2,23 
		142.2,20.1 134.6,20.1 	"/>
	<polygon class="st0" points="148.4,8.3 148.4,11.1 152.5,11.1 152.5,23 155.8,23 155.8,11.1 160,11.1 160,8.3 	"/>
	<path class="st0" d="M0,31.4h31.4V0H0V31.4z M3.9,3.9h23.7v23.7h-5.3V9.2H3.9V3.9z M3.9,13.1h14.5v14.5h-5.3v-9.2H3.9V13.1z
		 M3.9,22.3h5.3v5.3H3.9V22.3z"/>
</g>
</svg>
