<?xml version="1.0" encoding="utf-8"?>
<!-- Generator: Adobe Illustrator 19.0.0, SVG Export Plug-In . SVG Version: 6.00 Build 0)  -->
<svg version="1.1" id="Layer_1" xmlns="http://www.w3.org/2000/svg" xmlns:xlink="http://www.w3.org/1999/xlink" x="0px" y="0px"
	 width="179.1px" height="93.4px" viewBox="0 0 179.1 93.4" style="enable-background:new 0 0 179.1 93.4;" xml:space="preserve">
<style type="text/css">
	.st0{fill:#FFFFFF;}
	.st1{fill:#F05758;}
</style>
<g id="XMLID_9_">
	<g id="XMLID_73_">
		<path id="XMLID_86_" class="st0" d="M0,0h23v6.8H7.8v4.3h13.8v6.3H7.8v4.6h15.4v6.8H0V0z"/>
		<path id="XMLID_84_" class="st0" d="M35.1,14.1L25.7,0h9.1l5.1,8.1L45,0h8.9l-9.4,14l9.8,14.7h-9.1L39.7,20l-5.5,8.6h-8.9
			L35.1,14.1z"/>
		<path id="XMLID_82_" class="st0" d="M64.4,7h-8.6V0h25.2v7h-8.6v21.7h-8V7z"/>
		<path id="XMLID_80_" class="st0" d="M83.6,20.7h8.1v8h-8.1V20.7z"/>
		<path id="XMLID_78_" class="st0" d="M96,0h7.4l11.8,15.2V0h7.8v28.7h-7L103.9,13v15.7H96V0z"/>
		<path id="XMLID_76_" class="st0" d="M128.2,0h23v6.8H136v4.3h13.8v6.3H136v4.6h15.4v6.8h-23.2V0z"/>
		<path id="XMLID_74_" class="st0" d="M162.6,7H154V0h25.2v7h-8.6v21.7h-8V7z"/>
	</g>
	<g id="XMLID_58_">
		<path id="XMLID_70_" class="st1" d="M18.5,64.4H1.6L0,57.6L18.1,36h9.8v21.2h4.4v7.2h-4.4v6.8h-9.4V64.4z M18.5,57.2v-10l-8.3,10
			H18.5z"/>
		<path id="XMLID_66_" class="st1" d="M46.2,36.3h17.9c2.2,0,4.1,0.3,5.6,0.8c1.6,0.5,2.9,1.3,3.9,2.3c0.7,0.7,1.2,1.5,1.6,2.4
			c0.4,0.9,0.6,2,0.6,3.2v0.1c0,2-0.5,3.7-1.5,4.9c-1,1.2-2.3,2.2-3.9,2.9c2.1,0.7,3.8,1.7,5.1,3c1.3,1.3,1.9,3.2,1.9,5.5v0.1
			c0,3-1.2,5.4-3.5,7.1c-2.3,1.7-5.6,2.5-9.8,2.5h-18V36.3z M61.7,50.2c1.5,0,2.6-0.2,3.4-0.7c0.8-0.5,1.2-1.3,1.2-2.3v-0.1
			c0-1-0.4-1.7-1.1-2.2c-0.7-0.5-1.8-0.8-3.3-0.8h-6.3v6.1H61.7z M63.1,63.4c1.5,0,2.6-0.3,3.4-0.8c0.8-0.5,1.2-1.3,1.2-2.4v-0.1
			c0-1-0.4-1.7-1.1-2.3c-0.8-0.6-2-0.8-3.6-0.8h-7.4v6.4H63.1z"/>
		<path id="XMLID_64_" class="st1" d="M81.9,36.3H110v8.2H91.5v5.3h16.8v7.6H91.5V63h18.8v8.2H81.9V36.3z"/>
		<path id="XMLID_62_" class="st1" d="M123.8,44.8h-10.5v-8.5H144v8.5h-10.5v26.5h-9.7V44.8z"/>
		<path id="XMLID_59_" class="st1" d="M154.9,36h9.3l14.9,35.2h-10.4l-2.5-6.2h-13.5l-2.5,6.2H140L154.9,36z M163.4,57.5l-3.9-9.9
			l-3.9,9.9H163.4z"/>
	</g>
	<g id="XMLID_18_">
		<g id="XMLID_50_">
			<path id="XMLID_56_" class="st0" d="M0,78.9h3.7l5.8,7.5v-7.5h3.9v14.2H9.9l-6.1-7.8v7.8H0V78.9z"/>
			<path id="XMLID_53_" class="st0" d="M23,93.4c-1.1,0-2.1-0.2-3-0.6c-0.9-0.4-1.7-0.9-2.4-1.6c-0.7-0.7-1.2-1.4-1.6-2.3
				c-0.4-0.9-0.6-1.8-0.6-2.9v0c0-1,0.2-2,0.6-2.9c0.4-0.9,0.9-1.7,1.6-2.3c0.7-0.7,1.5-1.2,2.4-1.6c0.9-0.4,1.9-0.6,3-0.6
				c1.1,0,2.1,0.2,3,0.6c0.9,0.4,1.7,0.9,2.4,1.6c0.7,0.7,1.2,1.4,1.6,2.3c0.4,0.9,0.6,1.8,0.6,2.9v0c0,1-0.2,2-0.6,2.9
				c-0.4,0.9-0.9,1.7-1.6,2.3c-0.7,0.7-1.5,1.2-2.4,1.6C25.1,93.2,24.1,93.4,23,93.4z M23,89.8c0.5,0,1-0.1,1.5-0.3
				c0.4-0.2,0.8-0.5,1.1-0.8c0.3-0.3,0.6-0.7,0.7-1.2c0.2-0.5,0.3-0.9,0.3-1.5v0c0-0.5-0.1-1-0.3-1.5c-0.2-0.5-0.4-0.9-0.7-1.2
				c-0.3-0.4-0.7-0.6-1.2-0.8c-0.4-0.2-0.9-0.3-1.5-0.3c-0.5,0-1,0.1-1.5,0.3c-0.4,0.2-0.8,0.5-1.1,0.8c-0.3,0.3-0.6,0.7-0.7,1.2
				c-0.2,0.5-0.3,0.9-0.3,1.5v0c0,0.5,0.1,1,0.3,1.5c0.2,0.5,0.4,0.9,0.7,1.2c0.3,0.4,0.7,0.6,1.1,0.8C22,89.7,22.5,89.8,23,89.8z"
				/>
			<path id="XMLID_51_" class="st0" d="M31.7,78.9h4.1l2.5,8.2l2.7-8.2h3.4l2.7,8.2l2.5-8.2h4.1L49,93.2h-3.4L42.7,85l-2.8,8.1h-3.4
				L31.7,78.9z"/>
		</g>
		<g id="XMLID_20_">
			<path id="XMLID_47_" class="st0" d="M64.2,78.9h3.7l6,14.1h-4.2l-1-2.5h-5.4l-1,2.5h-4.1L64.2,78.9z M67.6,87.5l-1.6-4l-1.6,4
				H67.6z"/>
			<path id="XMLID_45_" class="st0" d="M74.1,79h4.3l3.2,8.9l3.2-8.9h4.3l-5.7,14.1h-3.6L74.1,79z"/>
			<path id="XMLID_42_" class="st0" d="M95.3,78.9H99l6,14.1h-4.2l-1-2.5h-5.4l-1,2.5h-4.1L95.3,78.9z M98.7,87.5l-1.6-4l-1.6,4
				H98.7z"/>
			<path id="XMLID_39_" class="st0" d="M106.4,79h3.9v14h-3.9V79z"/>
			<path id="XMLID_36_" class="st0" d="M112.9,79h3.9v10.6h6.8V93h-10.7V79z"/>
			<path id="XMLID_32_" class="st0" d="M130.1,78.9h3.7l6,14.1h-4.2l-1-2.5h-5.4l-1,2.5h-4.1L130.1,78.9z M133.5,87.5l-1.6-4l-1.6,4
				H133.5z"/>
			<path id="XMLID_27_" class="st0" d="M141.1,79h7.2c0.9,0,1.6,0.1,2.3,0.3c0.6,0.2,1.1,0.5,1.6,0.9c0.3,0.3,0.5,0.6,0.7,1
				c0.2,0.4,0.2,0.8,0.2,1.3v0c0,0.8-0.2,1.5-0.6,2c-0.4,0.5-0.9,0.9-1.5,1.2c0.9,0.3,1.5,0.7,2,1.2c0.5,0.5,0.8,1.3,0.8,2.2v0
				c0,1.2-0.5,2.2-1.4,2.8c-0.9,0.7-2.2,1-3.9,1h-7.2V79z M147.4,84.5c0.6,0,1.1-0.1,1.4-0.3c0.3-0.2,0.5-0.5,0.5-0.9v0
				c0-0.4-0.1-0.7-0.4-0.9c-0.3-0.2-0.7-0.3-1.3-0.3h-2.5v2.5H147.4z M147.9,89.8c0.6,0,1.1-0.1,1.4-0.3c0.3-0.2,0.5-0.5,0.5-1v0
				c0-0.4-0.2-0.7-0.5-0.9c-0.3-0.2-0.8-0.3-1.4-0.3h-3v2.6H147.9z"/>
			<path id="XMLID_23_" class="st0" d="M155.5,79h3.9v10.6h6.8V93h-10.7V79z"/>
			<path id="XMLID_21_" class="st0" d="M167.8,79H179v3.3h-7.4v2.1h6.7v3.1h-6.7v2.2h7.5V93h-11.3V79z"/>
		</g>
	</g>
</g>
</svg>
