<svg id="Layer_1" xmlns="http://www.w3.org/2000/svg" xmlns:xlink="http://www.w3.org/1999/xlink" width="261" height="150" viewBox="0 0 261 150"><style>.ext0{clip-path:url(#XMLID_28_);} .ext1{opacity:5.000000e-002;} .ext2{fill:#419EF7;} .ext3{opacity:0.15;} .ext4{opacity:0.25;} .ext5{fill:#233138;}</style><g id="XMLID_33_"><defs><path id="XMLID_36_" d="M0 0h261v150H0z"/></defs><clipPath id="XMLID_28_"><use xlink:href="#XMLID_36_" overflow="visible"/></clipPath><g id="XMLID_37_" class="ext0"><g id="XMLID_215_" class="ext1"><path id="XMLID_216_" class="ext2" d="M83 138h-99.3l-9.4-40.1L80.7-28.6h57.4V95.5h26.1V138h-26.1v39.8H83V138zm0-42.2V37L34.1 95.8H83z"/></g><g id="XMLID_211_" class="ext3"><path id="XMLID_212_" class="ext2" d="M138.6 125.3H59.2l-7.5-32.1L136.7-8h45.9v99.3h20.9v34h-20.9v31.9h-44v-31.9zm0-33.7V44.5L99.5 91.6h39.1z"/></g><g id="XMLID_207_" class="ext4"><path id="XMLID_208_" class="ext2" d="M182.9 115.2h-63.5l-6-25.7 68-81h36.7V88h16.7v27.2h-16.7v25.5h-35.2v-25.5zm0-27V50.5l-31.3 37.7h31.3z"/></g><g id="XMLID_154_"><g id="XMLID_104_"><path id="XMLID_117_" class="ext5" d="M34.3 45.7h17.8v5.2H40.3v3.4H51v4.9H40.3v3.5h11.9v5.2h-18V45.7z"/><path id="XMLID_115_" class="ext5" d="M61.4 56.6l-7.3-10.9h7.1l3.9 6.2 4-6.2H76l-7.3 10.8 7.6 11.4h-7.1L65 61.2l-4.3 6.7h-6.9l7.6-11.3z"/><path id="XMLID_113_" class="ext5" d="M84.1 51.1h-6.7v-5.4h19.5v5.4h-6.7v16.8H84V51.1z"/><path id="XMLID_111_" class="ext5" d="M99 61.7h6.3v6.2H99v-6.2z"/><path id="XMLID_109_" class="ext5" d="M108.6 45.7h5.8l9.2 11.7V45.7h6.1v22.2h-5.4l-9.5-12.2v12.2h-6.1V45.7z"/><path id="XMLID_107_" class="ext5" d="M133.5 45.7h17.8v5.2h-11.8v3.4h10.7v4.9h-10.7v3.5h11.9v5.2h-18V45.7z"/><path id="XMLID_105_" class="ext5" d="M160 51.1h-6.7v-5.4h19.5v5.4h-6.7v16.8H160V51.1z"/></g></g><g id="XMLID_94_"><g id="XMLID_161_"><path id="XMLID_191_" class="ext5" d="M33.9 80h2.7v12.2h-2.7V80z"/><path id="XMLID_189_" class="ext5" d="M44 92.4c-.9 0-1.8-.2-2.7-.5-.9-.3-1.7-.8-2.4-1.5l1.6-1.9c.6.5 1.1.8 1.7 1.1.6.3 1.2.4 1.9.4.6 0 1-.1 1.3-.3.3-.2.5-.5.5-.8 0-.2 0-.3-.1-.5s-.2-.3-.4-.4c-.2-.1-.4-.2-.8-.3-.3-.1-.7-.2-1.3-.4-.6-.2-1.2-.3-1.7-.5s-.9-.4-1.3-.7c-.3-.3-.6-.6-.8-1-.2-.4-.3-.9-.3-1.5s.1-1.1.3-1.5c.2-.4.5-.8.9-1.2.4-.3.8-.6 1.3-.7.5-.2 1.1-.3 1.7-.3.9 0 1.7.1 2.5.4.8.3 1.4.7 2.1 1.2l-1.4 2c-.5-.4-1.1-.7-1.6-.9-.5-.2-1-.3-1.6-.3-.5 0-.9.1-1.2.3-.3.2-.4.5-.4.8 0 .2 0 .4.1.5.1.1.2.3.4.4.2.1.5.2.8.3.3.1.8.2 1.3.4.6.2 1.2.3 1.7.5s.9.4 1.2.7c.3.3.6.6.8 1 .2.4.3.8.3 1.4 0 .6-.1 1.1-.3 1.6-.2.5-.5.9-.9 1.2-.4.3-.9.6-1.4.7-.5.2-1.1.3-1.8.3z"/><path id="XMLID_187_" class="ext5" d="M56 80h2.7v4.8h5V80h2.7v12.2h-2.7v-4.9h-5v4.9H56V80z"/><path id="XMLID_174_" class="ext5" d="M69.3 80h9.2v2.4H72v2.5h5.8v2.4H72v2.6h6.6v2.4h-9.3V80z"/><path id="XMLID_171_" class="ext5" d="M81 80h5.6c1.5 0 2.7.4 3.6 1.2.7.7 1 1.6 1 2.8 0 1-.2 1.8-.7 2.4-.5.6-1.1 1.1-1.9 1.4l3 4.4h-3.1l-2.6-3.9h-2.1v3.9H81V80zm5.4 5.9c.7 0 1.2-.2 1.5-.5.4-.3.5-.7.5-1.3 0-.6-.2-1-.6-1.3-.4-.3-.9-.4-1.6-.4h-2.7v3.5h2.9z"/><path id="XMLID_169_" class="ext5" d="M93.6 80h9.2v2.4h-6.5v2.5h5.8v2.4h-5.8v2.6h6.6v2.4h-9.3V80z"/><path id="XMLID_167_" class="ext5" d="M110.5 80h2.5l5.7 7.5V80h2.7v12.2h-2.3l-5.9-7.8v7.8h-2.7V80z"/><path id="XMLID_164_" class="ext5" d="M130.2 92.4c-.9 0-1.8-.2-2.6-.5s-1.5-.8-2-1.3c-.6-.6-1-1.2-1.3-2s-.5-1.6-.5-2.5c0-.9.2-1.7.5-2.5s.8-1.4 1.4-2 1.3-1 2.1-1.4c.8-.3 1.7-.5 2.6-.5.9 0 1.8.2 2.6.5s1.5.8 2 1.3c.6.6 1 1.2 1.3 2s.5 1.6.5 2.5c0 .9-.2 1.7-.5 2.5s-.8 1.4-1.4 2c-.6.6-1.3 1-2.1 1.4-.8.3-1.7.5-2.6.5zm0-2.5c.5 0 1-.1 1.5-.3.5-.2.8-.5 1.2-.8.3-.3.6-.8.8-1.2.2-.5.3-1 .3-1.5s-.1-1-.3-1.5c-.2-.5-.4-.9-.8-1.2-.3-.3-.7-.6-1.2-.8-.5-.2-.9-.3-1.5-.3-.5 0-1 .1-1.5.3-.4.2-.8.5-1.2.8-.3.3-.6.8-.8 1.2-.2.5-.3 1-.3 1.5s.1 1 .3 1.5c.2.5.4.9.8 1.2.3.3.7.6 1.2.8.5.2 1 .3 1.5.3z"/><path id="XMLID_162_" class="ext5" d="M138.2 80h2.9l2.5 8.3 2.7-8.3h2.3l2.7 8.3 2.5-8.3h2.8l-4.2 12.3h-2.3l-2.8-8-2.8 8h-2.3l-4-12.3z"/></g></g><g id="XMLID_78_"><path id="XMLID_79_" class="ext2" d="M219.9 107.1h-50.8l-4.8-20.5 54.4-64.8h29.4v63.6h13.3v21.7h-13.3v20.4h-28.2v-20.4zm0-21.6V55.3l-25 30.1h25z"/></g><g id="XMLID_72_"><path id="XMLID_74_" class="ext2" d="M34 102h126v5H34z"/></g></g></g></svg>