<svg xmlns="http://www.w3.org/2000/svg" width="340" height="150" viewBox="0 0 340 150"><style>.ext-mobile-final-0{fill:#043F56;} .ext-mobile-final-1{fill:#419EF7;} .ext-mobile-final-2{opacity:5.000000e-002;fill:#334149;} .ext-mobile-final-3{fill:#FFFFFF;stroke:#C7CED1;stroke-miterlimit:10;} .ext-mobile-final-4{fill:#E9EEF2;} .ext-mobile-final-5{fill:#FFFFFF;} .ext-mobile-final-6{opacity:0.25;fill:#7FD363;} .ext-mobile-final-7{fill:#C1CED6;} .ext-mobile-final-8{opacity:0.5;fill:#C1CED6;} .ext-mobile-final-9{opacity:0.2;fill:#043F56;} .ext-mobile-final-10{opacity:0.2;fill:none;stroke:#419EF7;stroke-width:6;stroke-miterlimit:10;} .ext-mobile-final-11{opacity:0.3;fill:none;stroke:#419EF7;stroke-width:6;stroke-miterlimit:10;}</style><g id="XMLID_16_"><g id="XMLID_5033_"><g id="XMLID_5072_"><path id="XMLID_5090_" class="ext-mobile-final-0" d="M109.7 52.5h5.4v5.3h-5.4v-5.3z"/><g id="XMLID_5073_"><path id="XMLID_5088_" class="ext-mobile-final-0" d="M44.5 34.9h18.4v5.4H50.7v3.5h11v5h-11v3.6H63v5.4H44.5V34.9z"/><path id="XMLID_5085_" class="ext-mobile-final-0" d="M72.5 46.1L65 34.8h7.3l4.1 6.4 4.1-6.4h7.1L80 46.1l7.9 11.7h-7.3l-4.4-6.9-4.4 6.9h-7.1l7.8-11.7z"/><path id="XMLID_5080_" class="ext-mobile-final-0" d="M95.9 40.5H89v-5.6h20.1v5.6h-6.9v17.4h-6.4V40.5z"/><path id="XMLID_5078_" class="ext-mobile-final-0" d="M121.2 34.9h5.9l9.4 12.1V34.9h6.3v22.9h-5.6l-9.8-12.6v12.6h-6.3V34.9z"/><path id="XMLID_5076_" class="ext-mobile-final-0" d="M146.9 34.9h18.4v5.4h-12.1v3.5h11v5h-11v3.6h12.3v5.4h-18.6V34.9z"/><path id="XMLID_5074_" class="ext-mobile-final-0" d="M174.3 40.5h-6.9v-5.6h20.1v5.6h-6.9v17.4h-6.4V40.5z"/></g></g><g id="XMLID_5055_"><path id="XMLID_5070_" class="ext-mobile-final-1" d="M44.5 65.7H52l6.1 9.9 6.1-9.9h7.5v25.5h-7V76.6l-6.5 10h-.1l-6.5-9.9v14.6h-7V65.7z"/><path id="XMLID_5067_" class="ext-mobile-final-1" d="M88.9 91.7c-2 0-3.8-.3-5.5-1-1.7-.7-3.1-1.6-4.3-2.8-1.2-1.2-2.2-2.6-2.9-4.2-.7-1.6-1-3.3-1-5.1v-.1c0-1.8.3-3.5 1-5.2.7-1.6 1.7-3 2.9-4.2 1.2-1.2 2.7-2.2 4.4-2.8s3.5-1 5.5-1 3.8.3 5.5 1 3.1 1.6 4.3 2.8c1.2 1.2 2.2 2.6 2.9 4.2.7 1.6 1 3.3 1 5.1v.1c0 1.8-.3 3.5-1 5.2-.7 1.6-1.7 3-2.9 4.2-1.2 1.2-2.7 2.2-4.4 2.8-1.7.7-3.5 1-5.5 1zm.1-6.3c1 0 1.9-.2 2.7-.5.8-.4 1.5-.9 2-1.5.6-.6 1-1.3 1.3-2.2.3-.8.5-1.7.5-2.6v-.1c0-.9-.2-1.8-.5-2.6s-.8-1.6-1.4-2.2c-.6-.6-1.3-1.1-2.1-1.5-.8-.4-1.7-.6-2.7-.6-1 0-1.9.2-2.7.5-.8.4-1.5.9-2 1.5-.6.6-1 1.3-1.3 2.2-.3.8-.5 1.7-.5 2.6v.1c0 .9.2 1.8.5 2.6s.8 1.6 1.3 2.2c.6.6 1.3 1.1 2.1 1.5.9.4 1.8.6 2.8.6z"/><path id="XMLID_5063_" class="ext-mobile-final-1" d="M106.4 65.7h13.1c1.6 0 3 .2 4.1.6 1.1.4 2.1 1 2.8 1.7.5.5.9 1.1 1.2 1.8.3.7.4 1.5.4 2.3v.1c0 1.5-.4 2.7-1.1 3.6-.7.9-1.7 1.6-2.8 2.1 1.6.5 2.8 1.2 3.7 2.2.9 1 1.4 2.3 1.4 4v.1c0 2.2-.8 3.9-2.5 5.2-1.7 1.2-4.1 1.9-7.1 1.9h-13.2V65.7zm11.3 10.2c1.1 0 1.9-.2 2.5-.5.6-.4.9-.9.9-1.7v-.1c0-.7-.3-1.2-.8-1.6-.5-.4-1.3-.6-2.4-.6h-4.6v4.5h4.4zm1.1 9.6c1.1 0 1.9-.2 2.5-.6.6-.4.9-1 .9-1.7v-.1c0-.7-.3-1.3-.8-1.7-.6-.4-1.4-.6-2.6-.6h-5.4v4.7h5.4z"/><path id="XMLID_5060_" class="ext-mobile-final-1" d="M132.6 65.7h7.1v25.5h-7.1V65.7z"/><path id="XMLID_5058_" class="ext-mobile-final-1" d="M144.4 65.7h7.1V85h12.4v6.2h-19.4V65.7z"/><path id="XMLID_5056_" class="ext-mobile-final-1" d="M166.8 65.7h20.5v6h-13.5v3.9h12.3v5.6h-12.3v4h13.7v6h-20.7V65.7z"/></g><g id="XMLID_5034_"><path id="XMLID_5053_" class="ext-mobile-final-0" d="M44.5 100h4v14.3h-4V100z"/><path id="XMLID_5051_" class="ext-mobile-final-0" d="M56.7 114.5c-1.3 0-2.5-.2-3.6-.6-1.2-.4-2.2-1-3.1-1.8l2.2-2.6c1.4 1.1 3 1.7 4.6 1.7.5 0 .9-.1 1.2-.3.3-.2.4-.4.4-.7 0-.1 0-.3-.1-.4-.1-.1-.2-.2-.4-.3-.2-.1-.4-.2-.7-.3-.3-.1-.7-.2-1.2-.3-.8-.2-1.5-.4-2.1-.6-.7-.2-1.2-.5-1.7-.8s-.9-.7-1.1-1.2c-.3-.5-.4-1.1-.4-1.8s.1-1.3.4-1.8c.3-.6.6-1 1.1-1.4.5-.4 1.1-.7 1.7-.9.7-.2 1.5-.3 2.3-.3 1.2 0 2.3.2 3.3.5s1.8.8 2.6 1.4l-2 2.8c-.7-.5-1.3-.8-2-1.1-.7-.2-1.4-.4-2-.4-.5 0-.8.1-1.1.3-.2.2-.4.4-.4.7 0 .2 0 .3.1.4.1.1.2.2.4.3.2.1.4.2.8.3.3.1.7.2 1.2.3.8.2 1.6.4 2.2.6.7.2 1.2.5 1.7.9.5.3.8.8 1.1 1.2.2.5.4 1.1.4 1.7 0 .7-.1 1.4-.4 2-.3.6-.7 1.1-1.2 1.5-.5.4-1.1.7-1.8.9-.8 0-1.5.1-2.4.1z"/><path id="XMLID_5049_" class="ext-mobile-final-0" d="M70 100h4v5.4h5.1V100h4v14.3h-4v-5.4H74v5.4h-4V100z"/><path id="XMLID_5047_" class="ext-mobile-final-0" d="M85.6 100h11.5v3.4h-7.6v2.2h6.9v3.1h-6.9v2.3h7.7v3.4H85.6V100z"/><path id="XMLID_5044_" class="ext-mobile-final-0" d="M99.2 100h6.8c1.1 0 2 .1 2.8.4.8.3 1.4.7 1.9 1.1.8.8 1.3 1.9 1.3 3.3 0 1.1-.3 2-.8 2.7-.5.7-1.2 1.3-2.1 1.7l3.4 5h-4.6l-2.9-4.3h-1.7v4.3h-4V100zm6.6 6.9c.7 0 1.2-.2 1.6-.5.4-.3.6-.7.6-1.2 0-.6-.2-1-.6-1.3-.4-.3-.9-.4-1.6-.4h-2.6v3.4h2.6z"/><path id="XMLID_5042_" class="ext-mobile-final-0" d="M113.9 100h11.5v3.4h-7.6v2.2h6.9v3.1h-6.9v2.3h7.7v3.4h-11.6V100z"/><path id="XMLID_5040_" class="ext-mobile-final-0" d="M133.2 100h3.7l5.9 7.6V100h3.9v14.3h-3.5l-6.1-7.8v7.8h-3.9V100z"/><path id="XMLID_5037_" class="ext-mobile-final-0" d="M156.5 114.6c-1.1 0-2.1-.2-3.1-.6-.9-.4-1.8-.9-2.4-1.6-.7-.7-1.2-1.5-1.6-2.4-.4-.9-.6-1.9-.6-2.9s.2-2 .6-2.9c.4-.9.9-1.7 1.6-2.4.7-.7 1.5-1.2 2.5-1.6s2-.6 3.1-.6 2.1.2 3.1.6 1.8.9 2.4 1.6c.7.7 1.2 1.5 1.6 2.4s.6 1.9.6 2.9-.2 2-.6 2.9c-.4.9-.9 1.7-1.6 2.4-.7.7-1.5 1.2-2.5 1.6-1 .4-2 .6-3.1.6zm0-3.6c.5 0 1-.1 1.5-.3.5-.2.8-.5 1.1-.8.3-.3.6-.8.7-1.2.2-.5.3-1 .3-1.5s-.1-1-.3-1.5c-.2-.5-.4-.9-.8-1.2-.3-.4-.7-.6-1.2-.8-.5-.2-.9-.3-1.5-.3-.5 0-1 .1-1.5.3-.4.2-.8.5-1.1.8-.3.3-.6.8-.7 1.2-.2.5-.3 1-.3 1.5s.1 1 .3 1.5c.2.5.4.9.7 1.2.3.4.7.6 1.2.8.6.2 1.1.3 1.6.3z"/><path id="XMLID_5035_" class="ext-mobile-final-0" d="M165.3 100h4.2l2.5 8.3 2.8-8.3h3.4l2.8 8.3 2.5-8.3h4.1l-4.8 14.4h-3.5l-2.9-8.2-2.9 8.2H170l-4.7-14.4z"/></g></g><path id="XMLID_5032_" class="ext-mobile-final-2" d="M220.7 150l-9.6-31.7 94.6-82.7L340 149.7z"/><g id="XMLID_4836_"><path id="XMLID_5031_" class="ext-mobile-final-3" d="M259 137.7l-42.1-15.3c-5.2-1.9-7.9-7.6-6-12.8L244.3 18c1.9-5.2 7.6-7.9 12.8-6l42.1 15.3c5.2 1.9 7.9 7.6 6 12.8l-33.3 91.6c-2 5.2-7.7 7.9-12.9 6z"/><path id="XMLID_5030_" class="ext-mobile-final-4" d="M247.817 22.77l51.495 18.743-28.933 79.498-51.496-18.74z"/><path id="XMLID_5029_" class="ext-mobile-final-4" d="M283.3 30.1l-15.8-5.7c-.4-.1-.5-.5-.4-.9v-.1c.1-.4.5-.5.9-.4l15.8 5.7c.4.1.5.5.4.9v.1c-.2.3-.6.5-.9.4z"/><path id="XMLID_5028_" class="ext-mobile-final-5" d="M250.108 27.266l44.166 16.074-3.386 9.303-44.166-16.074z"/><path id="XMLID_5027_" class="ext-mobile-final-5" d="M245.37 40.122l44.166 16.074-9.883 27.158-44.166-16.074z"/><path id="XMLID_5026_" class="ext-mobile-final-5" d="M234.29 70.67l20.298 7.388-10.875 29.882-20.298-7.387z"/><path id="XMLID_5025_" class="ext-mobile-final-5" d="M258.19 79.37l20.298 7.388-10.875 29.882-20.298-7.387z"/><path id="XMLID_5024_" class="ext-mobile-final-6" d="M251.677 31.36l14.565 5.302-1.23 3.383-14.566-5.3z"/><path id="XMLID_5023_" class="ext-mobile-final-7" d="M286.512 44.043l4.134 1.505-.17.47-4.135-1.505z"/><path id="XMLID_5022_" class="ext-mobile-final-8" d="M271.876 57.052l11.464 4.172-.41 1.128-11.464-4.172z"/><path id="XMLID_5021_" class="ext-mobile-final-9" d="M236.98 76.442l11.466 4.172-.41 1.128-11.465-4.173z"/><path id="XMLID_5020_" class="ext-mobile-final-8" d="M235.674 79.928L247.14 84.1l-.412 1.128-11.464-4.173z"/><path id="XMLID_5019_" class="ext-mobile-final-8" d="M234.41 83.54l8.834 3.214-.41 1.128L234 84.667z"/><path id="XMLID_5018_" class="ext-mobile-final-8" d="M232.502 88.63l11.465 4.174-.41 1.127-11.465-4.17z"/><path id="XMLID_5015_" class="ext-mobile-final-8" d="M231.29 92.152l11.464 4.172-.41 1.128-11.465-4.173z"/><path id="XMLID_5012_" class="ext-mobile-final-8" d="M229.898 95.823l8.833 3.215-.41 1.128-8.832-3.215z"/><path id="XMLID_5011_" class="ext-mobile-final-9" d="M260.886 85.132l11.465 4.172-.41 1.128-11.464-4.172z"/><path id="XMLID_5010_" class="ext-mobile-final-8" d="M259.673 88.652l11.465 4.173-.41 1.128-11.465-4.173z"/><path id="XMLID_5009_" class="ext-mobile-final-8" d="M258.282 92.324l8.833 3.215-.41 1.126-8.833-3.215z"/><path id="XMLID_5008_" class="ext-mobile-final-8" d="M256.467 97.45l11.464 4.172-.41 1.128-11.463-4.172z"/><path id="XMLID_4994_" class="ext-mobile-final-8" d="M255.195 100.842l11.464 4.173-.412 1.127-11.464-4.172z"/><path id="XMLID_4993_" class="ext-mobile-final-8" d="M253.803 104.514l8.833 3.214-.41 1.128-8.833-3.215z"/><path id="XMLID_4992_" class="ext-mobile-final-8" d="M270.99 59.45l11.463 4.172-.41 1.128-11.465-4.173z"/><path id="XMLID_4991_" class="ext-mobile-final-8" d="M269.942 62.115l7.142 2.6-.41 1.127-7.142-2.6z"/><path id="XMLID_4990_" class="ext-mobile-final-7" d="M286.02 45.34l4.136 1.504-.17.47-4.136-1.505z"/><path id="XMLID_4989_" class="ext-mobile-final-7" d="M285.633 46.56l4.135 1.505-.17.47-4.136-1.505z"/><circle id="XMLID_4988_" class="ext-mobile-final-10" cx="254.1" cy="58.6" r="8.7"/><path id="XMLID_4945_" class="ext-mobile-final-11" d="M257 50.4c4.5 1.7 6.9 6.7 5.2 11.2s-6.7 6.9-11.2 5.2c-2.4-.9-4.1-2.6-5-4.8"/><path id="XMLID_4841_" class="ext-mobile-final-4" d="M242.7 125.4l-5.4-2c-1.8-.7-2.8-2.7-2.1-4.5l.2-.5c.7-1.8 2.7-2.8 4.5-2.1l5.4 2c1.8.7 2.8 2.7 2.1 4.5l-.2.5c-.6 1.8-2.6 2.8-4.5 2.1z"/></g></g></svg>