<svg id="Layer_1" xmlns="http://www.w3.org/2000/svg" width="362.9" height="150" viewBox="-116 345.9 362.9 150"><style>.mobile-artwork-0{fill:none;} .mobile-artwork-1{fill:#FF5A5F;} .mobile-artwork-2{fill:#FFFFFF;} .mobile-artwork-3{fill:#043F56;} .mobile-artwork-4{fill:#419EF7;} .mobile-artwork-5{opacity:5.000000e-002;fill:#334149;enable-background:new ;} .mobile-artwork-6{fill:#FFFFFF;stroke:#C7CED1;stroke-miterlimit:10;} .mobile-artwork-7{fill:#E9EEF2;} .mobile-artwork-8{opacity:0.25;fill:#7FD363;enable-background:new ;} .mobile-artwork-9{fill:#C1CED6;} .mobile-artwork-10{opacity:0.5;fill:#C1CED6;enable-background:new ;} .mobile-artwork-11{opacity:0.2;fill:#043F56;enable-background:new ;} .mobile-artwork-12{opacity:0.2;fill:none;stroke:#419EF7;stroke-width:6;stroke-miterlimit:10;enable-background:new ;} .mobile-artwork-13{opacity:0.3;fill:none;stroke:#419EF7;stroke-width:6;stroke-miterlimit:10;enable-background:new ;}</style><path id="XMLID_5110_" class="mobile-artwork-0" d="M-116 345.9H52.5v149.7H-116V345.9z"/><g id="XMLID_5094_"><path id="XMLID_5107_" class="mobile-artwork-1" d="M-116 395.7l49.9-49.8h31.3l-81.2 81.2v-31.4z"/><g id="XMLID_5095_"><path id="XMLID_5103_" class="mobile-artwork-2" d="M-101.7 389.8l3.6-3.6c.4-.4.9-.8 1.3-1 .4-.2.8-.3 1.3-.3.3 0 .6.1.8.2.2.1.5.3.8.5.4.4.6.8.7 1.3 0 .5 0 .9-.2 1.4.6-.3 1.1-.4 1.6-.4s1 .3 1.5.7c.6.6.9 1.3.7 2.1-.1.8-.6 1.6-1.5 2.5l-3.5 3.7-7.1-7.1zm6-.3c.3-.3.5-.6.5-.8.1-.3 0-.5-.2-.7-.2-.2-.4-.3-.7-.2-.3 0-.5.2-.8.5l-1.3 1.3 1.2 1.2 1.3-1.3zm2.9 2.4c.3-.3.5-.6.5-.9.1-.3 0-.5-.2-.7-.2-.2-.4-.3-.7-.2-.3 0-.6.2-.9.6l-1.5 1.5 1.3 1.3 1.5-1.6z"/><path id="XMLID_5101_" class="mobile-artwork-2" d="M-94 382.1l5.7-5.7 1.7 1.7-3.7 3.7 1.1 1.1 3.4-3.4 1.5 1.5-3.4 3.4 1.1 1.1 3.8-3.8 1.7 1.7-5.7 5.7-7.2-7z"/><path id="XMLID_5099_" class="mobile-artwork-2" d="M-83.3 374.9l-2.1 2.1-1.7-1.7 6.2-6.2 1.7 1.7-2.2 2.1 5.3 5.3-2 2-5.2-5.3z"/><path id="XMLID_5096_" class="mobile-artwork-2" d="M-77.2 365.2l1.9-1.9 10.1 4.1-2.1 2.1-1.8-.7-2.7 2.7.8 1.8-2.1 2.1-4.1-10.2zm6 2.7l-2.8-1.3 1.2 2.8 1.6-1.5z"/></g></g><g id="XMLID_5033_"><g id="XMLID_5072_"><path id="XMLID_5090_" class="mobile-artwork-3" d="M17 398.5h5.4v5.4H17v-5.4z"/><g id="XMLID_5073_"><path id="XMLID_5088_" class="mobile-artwork-3" d="M-48.1 381h18.4v5.4h-12.2v3.5h11v5h-11v3.6h12.3v5.4h-18.5V381z"/><path id="XMLID_5085_" class="mobile-artwork-3" d="M-20.2 392.2l-7.5-11.2h7.3l4.1 6.4 4.1-6.4h7.1l-7.5 11.2 7.8 11.7h-7.3l-4.4-6.9-4.4 6.9H-28l7.8-11.7z"/><path id="XMLID_5080_" class="mobile-artwork-3" d="M3.2 386.5h-6.9v-5.6h20.1v5.6H9.5v17.4H3.2v-17.4z"/><path id="XMLID_5078_" class="mobile-artwork-3" d="M28.4 381h5.9l9.4 12.1V381h6.2v22.9h-5.6l-9.8-12.5v12.5h-6.2V381h.1z"/><path id="XMLID_5076_" class="mobile-artwork-3" d="M54.1 381h18.4v5.4H60.4v3.5h11v5h-11v3.6h12.3v5.4H54.2l-.1-22.9z"/><path id="XMLID_5074_" class="mobile-artwork-3" d="M81.5 386.5h-6.9v-5.6h20.1v5.6h-6.9v17.4h-6.3v-17.4z"/></g></g><g id="XMLID_5055_"><path id="XMLID_5070_" class="mobile-artwork-4" d="M-48.1 411.8h7.5l6.1 9.9 6.1-9.9h7.5v25.5h-7v-14.7l-6.5 10h-.1l-6.5-9.9v14.6h-7l-.1-25.5z"/><path id="XMLID_5067_" class="mobile-artwork-4" d="M-3.7 437.7c-2 0-3.8-.3-5.5-1-1.7-.7-3.1-1.6-4.3-2.8-1.2-1.2-2.2-2.6-2.9-4.2-.7-1.6-1-3.3-1-5.1v-.1c0-1.8.3-3.5 1-5.1s1.7-3 2.9-4.2c1.2-1.2 2.7-2.1 4.4-2.8 1.7-.7 3.5-1 5.5-1s3.8.3 5.5 1c1.7.7 3.1 1.6 4.3 2.8 1.2 1.2 2.2 2.6 2.9 4.2.7 1.6 1 3.3 1 5.1v.1c0 1.8-.3 3.5-1 5.1s-1.7 3-2.9 4.2c-1.2 1.2-2.7 2.1-4.4 2.8-1.8.7-3.6 1-5.5 1zm0-6.3c1 0 1.9-.2 2.7-.5.8-.4 1.5-.9 2-1.5.6-.6 1-1.3 1.3-2.2.3-.8.5-1.7.5-2.6v-.1c0-.9-.2-1.8-.5-2.6s-.8-1.6-1.3-2.2c-.6-.6-1.3-1.1-2.1-1.5-.8-.4-1.7-.6-2.7-.6s-1.9.2-2.6.5c-.8.4-1.5.9-2 1.5-.6.6-1 1.3-1.3 2.2-.3.8-.5 1.7-.5 2.6v.1c0 .9.2 1.8.5 2.6s.8 1.6 1.3 2.2c.6.6 1.3 1.1 2.1 1.5.8.4 1.6.6 2.6.6z"/><path id="XMLID_5063_" class="mobile-artwork-4" d="M13.7 411.8h13c1.6 0 3 .2 4.1.6 1.1.4 2.1 1 2.8 1.7.5.5.9 1.1 1.2 1.8.3.7.4 1.5.4 2.3v.1c0 1.5-.4 2.7-1.1 3.6-.7.9-1.7 1.6-2.8 2.1 1.6.5 2.8 1.2 3.7 2.2s1.4 2.3 1.4 4v.1c0 2.2-.8 3.9-2.5 5.2-1.7 1.2-4.1 1.9-7.1 1.9H13.7v-25.6zM25 421.9c1.1 0 1.9-.2 2.5-.5.6-.4.9-.9.9-1.7v-.1c0-.7-.3-1.2-.8-1.6-.5-.4-1.3-.6-2.4-.6h-4.6v4.5H25zm1 9.7c1.1 0 1.9-.2 2.5-.6.6-.4.9-1 .9-1.7v-.1c0-.7-.3-1.3-.8-1.7-.6-.4-1.4-.6-2.6-.6h-5.4v4.7H26z"/><path id="XMLID_5060_" class="mobile-artwork-4" d="M39.9 411.8H47v25.5h-7.1v-25.5z"/><path id="XMLID_5058_" class="mobile-artwork-4" d="M51.6 411.8h7.1v19.3H71v6.2H51.6v-25.5z"/><path id="XMLID_5056_" class="mobile-artwork-4" d="M74 411.8h20.5v6H81v3.9h12.2v5.6H81v4h13.7v6H74v-25.5z"/></g><g id="XMLID_5034_"><path id="XMLID_5053_" class="mobile-artwork-3" d="M-48.1 446h4v14.3h-4V446z"/><path id="XMLID_5051_" class="mobile-artwork-3" d="M-35.9 460.5c-1.3 0-2.5-.2-3.6-.6-1.1-.4-2.2-1-3.1-1.8l2.2-2.6c1.4 1.1 3 1.7 4.6 1.7.5 0 .9-.1 1.2-.3.3-.2.4-.4.4-.7 0-.1 0-.3-.1-.4-.1-.1-.2-.2-.4-.3-.2-.1-.4-.2-.7-.3-.3-.1-.7-.2-1.2-.3-.8-.2-1.5-.4-2.1-.6-.7-.2-1.2-.5-1.7-.8-.5-.3-.9-.7-1.1-1.2-.3-.5-.4-1.1-.4-1.8s.1-1.3.4-1.8c.3-.6.6-1 1.1-1.4s1.1-.7 1.7-.9c.7-.2 1.4-.3 2.3-.3 1.2 0 2.3.2 3.3.5s1.8.8 2.6 1.4l-2 2.8c-.7-.5-1.3-.8-2-1.1-.7-.2-1.4-.4-2-.4-.5 0-.8.1-1.1.3-.2.2-.4.4-.4.7 0 .2 0 .3.1.4.1.1.2.2.4.3s.4.2.8.3c.3.1.7.2 1.2.3.8.2 1.6.4 2.2.6.7.2 1.2.5 1.7.9.5.3.8.8 1.1 1.2.2.5.4 1.1.4 1.7 0 .7-.1 1.4-.4 2s-.7 1.1-1.2 1.5-1.1.7-1.8.9c-.8 0-1.6.1-2.4.1z"/><path id="XMLID_5049_" class="mobile-artwork-3" d="M-22.6 446h4v5.3h5.1V446h4v14.3h-4v-5.4h-5.1v5.4h-4V446z"/><path id="XMLID_5047_" class="mobile-artwork-3" d="M-7.1 446H4.4v3.4h-7.6v2.2h6.9v3.1h-6.9v2.3h7.7v3.4H-7.1V446z"/><path id="XMLID_5044_" class="mobile-artwork-3" d="M6.5 446h6.8c1.1 0 2 .1 2.8.4.8.3 1.4.7 1.9 1.1.8.8 1.3 1.9 1.3 3.3 0 1.1-.3 2-.8 2.7-.5.7-1.2 1.3-2.1 1.7l3.4 5h-4.6l-2.9-4.3h-1.7v4.3h-4L6.5 446zm6.6 6.8c.7 0 1.2-.2 1.6-.5.4-.3.6-.7.6-1.2 0-.6-.2-1-.6-1.3-.4-.3-.9-.4-1.6-.4h-2.6v3.4h2.6z"/><path id="XMLID_5042_" class="mobile-artwork-3" d="M21.2 446h11.5v3.4h-7.6v2.2H32v3.1h-6.9v2.3h7.7v3.4H21.2V446z"/><path id="XMLID_5040_" class="mobile-artwork-3" d="M40.5 446h3.7l5.9 7.5V446H54v14.3h-3.5l-6.1-7.8v7.8h-3.9V446z"/><path id="XMLID_5037_" class="mobile-artwork-3" d="M63.7 460.5c-1.1 0-2.1-.2-3.1-.6-.9-.4-1.7-.9-2.4-1.6-.7-.7-1.2-1.4-1.6-2.3-.4-.9-.6-1.9-.6-2.9s.2-2 .6-2.9c.4-.9.9-1.7 1.6-2.4.7-.7 1.5-1.2 2.4-1.6s2-.6 3.1-.6 2.1.2 3.1.6 1.7.9 2.4 1.6c.7.7 1.2 1.4 1.6 2.3.4.9.6 1.9.6 2.9s-.2 2-.6 2.9c-.4.9-.9 1.7-1.6 2.4-.7.7-1.5 1.2-2.4 1.6-1 .4-2 .6-3.1.6zm0-3.5c.5 0 1-.1 1.5-.3s.8-.5 1.1-.8c.3-.3.6-.8.7-1.2.2-.5.3-1 .3-1.5s-.1-1-.3-1.5-.4-.9-.8-1.2c-.3-.4-.7-.6-1.2-.8s-.9-.3-1.5-.3c-.5 0-1 .1-1.5.3-.4.2-.8.5-1.1.8-.3.3-.6.8-.7 1.2-.2.5-.3 1-.3 1.5s.1 1 .3 1.5.4.9.7 1.2c.3.4.7.6 1.2.8.6.2 1.1.3 1.6.3z"/><path id="XMLID_5035_" class="mobile-artwork-3" d="M72.5 446h4.2l2.5 8.3L82 446h3.4l2.8 8.3 2.5-8.3h4.1L90 460.4h-3.4l-2.9-8.2-2.9 8.2h-3.4L72.5 446z"/></g></g><path id="XMLID_5032_" class="mobile-artwork-5" d="M127.8 495.9l-9.5-31.6 94.3-82.6 34.3 113.9-119.1.3z"/><g id="XMLID_4836_"><path id="XMLID_5031_" class="mobile-artwork-6" d="M166 483.6l-42-15.3c-5.2-1.9-7.9-7.6-6-12.8l33.3-91.4c1.9-5.2 7.6-7.9 12.8-6l42 15.3c5.2 1.9 7.9 7.6 6 12.8l-33.3 91.4c-1.9 5.2-7.6 7.9-12.8 6z"/><path id="XMLID_5030_" class="mobile-artwork-7" d="M154.9 368.9l51.4 18.7-28.9 79.4-51.4-18.7 28.9-79.4z"/><path id="XMLID_5029_" class="mobile-artwork-7" d="M190.2 376.2l-15.8-5.7c-.4-.1-.5-.5-.4-.9v-.1c.1-.4.5-.5.9-.4l15.8 5.7c.4.1.5.5.4.9v.1c-.1.4-.5.5-.9.4z"/><path id="XMLID_5028_" class="mobile-artwork-2" d="M157.1 373.4l44.1 16-3.4 9.2-44.1-16 3.4-9.2z"/><path id="XMLID_5027_" class="mobile-artwork-2" d="M152.5 386.2l44.1 16-9.9 27.1-44.1-16 9.9-27.1z"/><path id="XMLID_5026_" class="mobile-artwork-2" d="M141.4 416.7l20.3 7.4-10.9 29.9-20.3-7.4 10.9-29.9z"/><path id="XMLID_5025_" class="mobile-artwork-2" d="M165.2 425.4l20.3 7.4-10.9 29.9-20.3-7.4 10.9-29.9z"/><path id="XMLID_5024_" class="mobile-artwork-8" d="M158.7 377.4l14.6 5.3-1.2 3.4-14.6-5.3 1.2-3.4z"/><path id="XMLID_5023_" class="mobile-artwork-9" d="M193.5 390.1l4.1 1.5-.2.5-4.1-1.5.2-.5z"/><path id="XMLID_5022_" class="mobile-artwork-10" d="M178.9 403l11.5 4.2-.4 1.1-11.5-4.2.4-1.1z"/><path id="XMLID_5021_" class="mobile-artwork-11" d="M144.1 422.4l11.5 4.2-.4 1.1-11.5-4.2.4-1.1z"/><path id="XMLID_5020_" class="mobile-artwork-10" d="M142.8 425.9l11.5 4.2-.4 1.1-11.5-4.2.4-1.1z"/><path id="XMLID_5019_" class="mobile-artwork-10" d="M141.5 429.6l8.8 3.2-.4 1.1-8.8-3.2.4-1.1z"/><path id="XMLID_5018_" class="mobile-artwork-10" d="M139.6 434.7l11.5 4.2-.4 1.1-11.5-4.2.4-1.1z"/><path id="XMLID_5015_" class="mobile-artwork-10" d="M138.3 438.1l11.5 4.2-.4 1.1-11.5-4.2.4-1.1z"/><path id="XMLID_5012_" class="mobile-artwork-10" d="M137 441.8l8.8 3.2-.4 1.1-8.8-3.2.4-1.1z"/><path id="XMLID_5011_" class="mobile-artwork-11" d="M167.9 431.1l11.5 4.2-.4 1.1-11.5-4.2.4-1.1z"/><path id="XMLID_5010_" class="mobile-artwork-10" d="M166.7 434.6l11.5 4.2-.4 1.1-11.5-4.2.4-1.1z"/><path id="XMLID_5009_" class="mobile-artwork-10" d="M165.3 438.3l8.8 3.2-.4 1.1-8.8-3.2.4-1.1z"/><path id="XMLID_5008_" class="mobile-artwork-10" d="M163.5 443.3l11.5 4.2-.4 1.1-11.5-4.2.4-1.1z"/><path id="XMLID_4994_" class="mobile-artwork-10" d="M162.2 446.8l11.5 4.2-.4 1.1-11.5-4.2.4-1.1z"/><path id="XMLID_4993_" class="mobile-artwork-10" d="M160.9 450.5l8.8 3.2-.4 1.1-8.8-3.2.4-1.1z"/><path id="XMLID_4992_" class="mobile-artwork-10" d="M178 405.5l11.5 4.2-.4 1.1-11.5-4.2.4-1.1z"/><path id="XMLID_4991_" class="mobile-artwork-10" d="M177.1 408.1l7.1 2.6-.4 1.1-7.1-2.6.4-1.1z"/><path id="XMLID_4990_" class="mobile-artwork-9" d="M193 391.4l4.1 1.5-.2.5-4.1-1.5.2-.5z"/><path id="XMLID_4989_" class="mobile-artwork-9" d="M192.6 392.7l4.1 1.5-.2.5-4.1-1.5.2-.5z"/><circle id="XMLID_4988_" class="mobile-artwork-12" cx="161.1" cy="404.7" r="8.7"/><path id="XMLID_4945_" class="mobile-artwork-13" d="M164.1 396.5c4.5 1.6 6.9 6.7 5.2 11.2s-6.7 6.9-11.2 5.2c-2.4-.9-4.1-2.6-5-4.8"/><path id="XMLID_4841_" class="mobile-artwork-7" d="M149.8 471.3l-5.4-2c-1.8-.7-2.8-2.7-2.1-4.5l.2-.5c.7-1.8 2.7-2.8 4.5-2.1l5.4 2c1.8.7 2.8 2.7 2.1 4.5l-.2.5c-.7 1.8-2.7 2.8-4.5 2.1z"/></g></svg>